<svg xmlns="http://www.w3.org/2000/svg" width="800" height="200"><style >.heavy { font: bold 30px sans-serif; }</style><marker color="#202020" id="arrowhead" viewBox="0 0 10 10" refX="6" refY="4" markerWidth="6" markerHeight="6" orient="auto-start-reverse"><path d="M 0 0 L 8 4 L 0 8 Z " fill="#202020"/></marker><polygon stroke="#202020" stroke-width="8" points="20 190 50 110 310 90 340 90 340 180 270 160" fill-opacity="0.4" fill="#00ff00"/><text class="heavy" x="202" y="145">Flight 1</text><polygon stroke="#dd2020" stroke-width="8" points="10 100 100 10 190 30 220 85" fill-opacity="0.4" fill="#00ff00"/><text class="heavy" x="55" y="80">Flight 2m</text><polygon stroke="#dd2020" stroke-width="8" points="450 100 540 10 630 30 660 85" fill-opacity="0.4" fill="#00ff00"/><text class="heavy" x="495" y="80">Flight 2m</text><polygon stroke="#202020" stroke-dasharray="16" stroke-width="8" points="625 180 630 40 750 90 780 90 780 180 710 160" fill-opacity="0.4" fill="#00ff00"/><text class="heavy" x="642" y="145">Flight 1c</text><text class="heavy" fill="red" x="635" y="85">X</text><line stroke="#202020" stroke-width="8" x1="370" y1="100" x2="420" y2="100" marker-end="url(#arrowhead)"/></svg>