<svg xmlns="http://www.w3.org/2000/svg" width="800" height="200"><style >.heavy { font: bold 30px sans-serif; }</style><marker color="#202020" id="arrowhead" viewBox="0 0 10 10" refX="6" refY="4" markerWidth="6" markerHeight="6" orient="auto-start-reverse"><path d="M 0 0 L 8 4 L 0 8 Z " fill="#202020"/></marker><polygon stroke="#202020" stroke-width="8" points="10 110 100 10 190 30 220 100 160 190" fill-opacity="0.4" fill="#00ff00"/><text class="heavy" x="60" y="90">Flight 2</text><polygon stroke="#202020" stroke-width="8" points="185 180 225 110 310 90 340 90 340 180 270 160" fill-opacity="0.4" fill="#808080"/><text class="heavy" x="217" y="145">Flight 1c</text><polygon stroke="#202020" stroke-width="8" points="450 110 540 10 630 30 660 100 600 190" fill-opacity="0.4" fill="#00ff00"/><text class="heavy" x="500" y="90">Flight 2</text><polygon stroke="#202020" stroke-dasharray="16" stroke-width="8" points="460 190 490 110 750 90 780 90 780 180 710 160" fill-opacity="0.4" fill="#00ff00"/><text class="heavy" x="662" y="145">Flight 1</text><text class="heavy" fill="red" x="560" y="150">X</text><line stroke="#202020" stroke-width="8" x1="370" y1="100" x2="420" y2="100" marker-end="url(#arrowhead)"/></svg>